<svg width="320" height="220" viewBox="0 0 320 220" fill="none" xmlns="http://www.w3.org/2000/svg">
  <defs>
    <linearGradient id="archBg" x1="30" y1="24" x2="292" y2="196" gradientUnits="userSpaceOnUse">
      <stop stop-color="#13251A"/>
      <stop offset="1" stop-color="#09100C"/>
    </linearGradient>
  </defs>
  <rect x="18" y="16" width="284" height="188" rx="28" fill="url(#archBg)"/>
  <rect x="46" y="40" width="228" height="140" rx="28" fill="#0F1E12" stroke="#4ADE80" stroke-opacity="0.16"/>
  <circle cx="106" cy="92" r="26" fill="#4ADE80" fill-opacity="0.2"/>
  <circle cx="214" cy="92" r="26" fill="#FBBF24" fill-opacity="0.18"/>
  <circle cx="106" cy="148" r="26" fill="#F87171" fill-opacity="0.18"/>
  <circle cx="214" cy="148" r="26" fill="#FB923C" fill-opacity="0.18"/>
  <circle cx="106" cy="92" r="12" fill="#4ADE80"/>
  <circle cx="214" cy="92" r="12" fill="#FBBF24"/>
  <circle cx="106" cy="148" r="12" fill="#F87171"/>
  <circle cx="214" cy="148" r="12" fill="#FB923C"/>
  <path d="M106 84C110 88 114 94 116 100" stroke="#F0FDF4" stroke-width="3" stroke-linecap="round"/>
  <path d="M214 82C208 88 204 95 203 101" stroke="#F0FDF4" stroke-width="3" stroke-linecap="round"/>
  <path d="M98 148H114" stroke="#F0FDF4" stroke-width="3" stroke-linecap="round"/>
  <path d="M206 148H222" stroke="#F0FDF4" stroke-width="3" stroke-linecap="round"/>
  <rect x="74" y="58" width="64" height="10" rx="5" fill="#F0FDF4" fill-opacity="0.08"/>
  <rect x="182" y="58" width="64" height="10" rx="5" fill="#F0FDF4" fill-opacity="0.08"/>
  <rect x="74" y="170" width="64" height="10" rx="5" fill="#F0FDF4" fill-opacity="0.08"/>
  <rect x="182" y="170" width="64" height="10" rx="5" fill="#F0FDF4" fill-opacity="0.08"/>
</svg>
