<svg width="320" height="240" viewBox="0 0 320 240" fill="none" xmlns="http://www.w3.org/2000/svg">
  <defs>
    <linearGradient id="dietBg" x1="34" y1="24" x2="286" y2="210" gradientUnits="userSpaceOnUse">
      <stop stop-color="#163421"/>
      <stop offset="1" stop-color="#0A130D"/>
    </linearGradient>
    <linearGradient id="bowlOuter" x1="74" y1="120" x2="246" y2="176" gradientUnits="userSpaceOnUse">
      <stop stop-color="#F8FAFC"/>
      <stop offset="1" stop-color="#D9F99D"/>
    </linearGradient>
    <linearGradient id="bowlInner" x1="94" y1="110" x2="228" y2="160" gradientUnits="userSpaceOnUse">
      <stop stop-color="#86EFAC"/>
      <stop offset="1" stop-color="#4ADE80"/>
    </linearGradient>
  </defs>
  <rect x="18" y="16" width="284" height="208" rx="30" fill="url(#dietBg)"/>
  <circle cx="88" cy="56" r="32" fill="#4ADE80" fill-opacity="0.09"/>
  <circle cx="238" cy="60" r="24" fill="#FACC15" fill-opacity="0.08"/>
  <ellipse cx="160" cy="178" rx="78" ry="12" fill="#020617" fill-opacity="0.35"/>
  <path d="M86 132C86 110 104 92 126 92H194C216 92 234 110 234 132V136H86V132Z" fill="url(#bowlInner)"/>
  <path d="M94 138H226C220 166 197 186 170 186H150C123 186 100 166 94 138Z" fill="url(#bowlOuter)"/>
  <path d="M105 119C105 109 113 101 123 101C133 101 141 109 141 119C141 129 133 137 123 137C113 137 105 129 105 119Z" fill="#22C55E"/>
  <path d="M116 112C122 118 127 126 129 133" stroke="#DCFCE7" stroke-width="3.5" stroke-linecap="round"/>
  <circle cx="157" cy="106" r="16" fill="#FACC15"/>
  <path d="M151 104L158 111L168 99" stroke="#F97316" stroke-width="3.5" stroke-linecap="round" stroke-linejoin="round"/>
  <circle cx="196" cy="118" r="14" fill="#F97316"/>
  <circle cx="187" cy="102" r="11" fill="#FB7185"/>
  <circle cx="210" cy="100" r="10" fill="#60A5FA"/>
  <path d="M138 86C138 72 149 60 163 60C177 60 188 72 188 86V94H138V86Z" fill="#0F1E12" stroke="#F0FDF4" stroke-opacity="0.14"/>
  <path d="M150 60V94" stroke="#F0FDF4" stroke-opacity="0.18"/>
  <path d="M163 60V94" stroke="#F0FDF4" stroke-opacity="0.18"/>
  <path d="M176 60V94" stroke="#F0FDF4" stroke-opacity="0.18"/>
  <rect x="58" y="42" width="72" height="12" rx="6" fill="#F0FDF4" fill-opacity="0.1"/>
  <rect x="190" y="174" width="54" height="9" rx="4.5" fill="#4ADE80" fill-opacity="0.22"/>
  <rect x="74" y="192" width="62" height="9" rx="4.5" fill="#FACC15" fill-opacity="0.16"/>
</svg>
