<svg width="320" height="220" viewBox="0 0 320 220" fill="none" xmlns="http://www.w3.org/2000/svg">
  <defs>
    <linearGradient id="bg" x1="28" y1="20" x2="292" y2="200" gradientUnits="userSpaceOnUse">
      <stop stop-color="#183222"/>
      <stop offset="1" stop-color="#0A140C"/>
    </linearGradient>
    <linearGradient id="glow" x1="70" y1="42" x2="250" y2="190" gradientUnits="userSpaceOnUse">
      <stop stop-color="#4ADE80" stop-opacity="0.9"/>
      <stop offset="1" stop-color="#2DD4BF" stop-opacity="0.2"/>
    </linearGradient>
    <linearGradient id="line" x1="74" y1="150" x2="236" y2="86" gradientUnits="userSpaceOnUse">
      <stop stop-color="#86EFAC"/>
      <stop offset="1" stop-color="#2DD4BF"/>
    </linearGradient>
  </defs>
  <rect x="18" y="16" width="284" height="188" rx="28" fill="url(#bg)"/>
  <circle cx="82" cy="58" r="36" fill="#4ADE80" fill-opacity="0.1"/>
  <circle cx="250" cy="54" r="24" fill="#2DD4BF" fill-opacity="0.08"/>
  <rect x="42" y="38" width="112" height="58" rx="18" fill="#102117" stroke="#4ADE80" stroke-opacity="0.22"/>
  <rect x="168" y="38" width="110" height="128" rx="24" fill="#0F1E12" stroke="#4ADE80" stroke-opacity="0.18"/>
  <rect x="54" y="52" width="58" height="10" rx="5" fill="#F0FDF4" fill-opacity="0.9"/>
  <rect x="54" y="70" width="42" height="8" rx="4" fill="#86EFAC" fill-opacity="0.7"/>
  <path d="M60 152C84 144 99 116 123 108C141 102 157 106 176 95C191 87 204 72 230 70" stroke="url(#line)" stroke-width="5" stroke-linecap="round"/>
  <circle cx="60" cy="152" r="6" fill="#86EFAC"/>
  <circle cx="123" cy="108" r="6" fill="#4ADE80"/>
  <circle cx="176" cy="95" r="6" fill="#2DD4BF"/>
  <circle cx="230" cy="70" r="6" fill="#F0FDF4"/>
  <path d="M232 106C220 88 199 92 191 112C186 126 193 141 210 149C223 155 239 151 247 138C255 124 248 112 232 106Z" fill="url(#glow)"/>
  <path d="M220 94C226 103 233 112 240 120" stroke="#F0FDF4" stroke-width="3.5" stroke-linecap="round"/>
  <rect x="48" y="170" width="96" height="12" rx="6" fill="#F0FDF4" fill-opacity="0.12"/>
  <rect x="168" y="176" width="64" height="8" rx="4" fill="#4ADE80" fill-opacity="0.34"/>
  <rect x="238" y="176" width="28" height="8" rx="4" fill="#2DD4BF" fill-opacity="0.22"/>
</svg>
